<svg xmlns="http://www.w3.org/2000/svg" viewBox="0 0 113 113"><defs><style>.cls-1{fill:none;}.cls-2{fill:#00ffa6;}</style></defs><title>aquarius</title><g id="Layer_2" data-name="Layer 2"><g id="Layer_1-2" data-name="Layer 1"><rect class="cls-1" width="113" height="113"/><path class="cls-2" d="M99.25,59.8c-2-1.29-3.65-.27-5.14,1.08-3.58,3.26-7.18,6.49-10.68,9.83-1.32,1.26-2.32,1.21-3.6,0-2.94-2.76-6-5.37-8.91-8.17-4.54-4.41-6-4.34-10.38.11C57.29,66,53.73,68.93,50,72.32c-4.56-4.14-8.74-7.91-12.87-11.73-1.63-1.51-3.4-2-5.12-.51Q23.88,67.31,16,74.76a3.27,3.27,0,0,0,.06,5.1c1.62,1.57,3.43,1.35,5.09-.15,3.74-3.38,7.58-6.66,11.18-10.18,1.58-1.54,2.56-1.35,4,0,3.36,3.2,6.83,6.28,10.27,9.41,2.92,2.66,4.21,2.61,7.18-.13,3.41-3.13,6.94-6.15,10.25-9.39,1.46-1.43,2.36-1.26,3.73,0,3.49,3.35,7.12,6.55,10.68,9.83,1.64,1.51,3.52,2.38,5.39.73q8.16-7.2,16.06-14.69A3.54,3.54,0,0,0,99.25,59.8Z"/><path class="cls-2" d="M16.86,56.18A5.2,5.2,0,0,0,21,55.61c3.75-3,7.35-6.31,10.79-9.71,1.87-1.86,3.12-1.89,5,0,3.3,3.26,6.88,6.22,10.27,9.39,2.26,2.11,4.3,1.72,6.38-.2,3.42-3.15,6.92-6.2,10.24-9.44,1.61-1.56,2.83-1.46,4.36,0q4.71,4.5,9.55,8.84c3.43,3.06,4.64,3,8,0q6.61-6,13.22-12c2.26-2.05,2.7-4.35,1.16-6.06-1.37-1.52-3.75-1.32-5.89.6-3.38,3-6.77,6-10,9.23-1.76,1.72-3.15,1.68-4.86,0-3-2.95-6.2-5.79-9.31-8.67s-5-3-8.29,0c-3,2.82-6,5.65-9,8.51-1.76,1.7-3.23,1.78-5.09-.08-3.2-3.21-6.63-6.18-10-9.22-2.12-1.93-4.24-2-6.43,0-4.84,4.43-9.75,8.78-14.56,13.25a18,18,0,0,0-2.14,3.24C15.26,54.43,15.89,55.91,16.86,56.18Z"/></g></g></svg>