<svg xmlns="http://www.w3.org/2000/svg" viewBox="0 0 113 113"><defs><style>.cls-1{fill:none;}.cls-2{fill:#ff8c2e;}</style></defs><title>aries</title><g id="Layer_2" data-name="Layer 2"><g id="Layer_1-2" data-name="Layer 1"><rect class="cls-1" width="113" height="113"/><path class="cls-2" d="M58.35,65.07C60.25,59,61.86,52.26,64.42,46,67.23,39,71.55,33.29,79.15,30.41,86,27.82,96.41,32.76,99.33,41.58a18.39,18.39,0,0,1-1.62,15.19c-1.35,2.47-3.66,3.4-5.46,2.11-2.13-1.52-1.57-3.42-.49-5.35,3.9-7,1.32-14.26-5.89-16.7-3.47-1.18-7.73.52-10.86,4.26A37,37,0,0,0,67.38,58c-1.81,9.18-3.25,18.43-4.86,27.65-.2,1.2-.21,2.58-.84,3.51-.82,1.18-2.42,3-3.26,2.74a5.09,5.09,0,0,1-3.22-3.27c-1.21-6.33-1.74-12.78-3-19.11C50.45,60.37,49.09,51,43.56,43a19.6,19.6,0,0,0-2.75-3.21c-4.31-4-8.12-4.5-12.28-1.71a11,11,0,0,0-4.28,13.32,30.67,30.67,0,0,0,1.49,3c1,1.83.59,3.48-1.1,4.47a3.2,3.2,0,0,1-4.71-1.21c-6.77-11-1.66-23.56,9-27.08,6.76-2.23,14.17.6,19.22,7.39a48.16,48.16,0,0,1,7.64,16.69C56.77,58.26,57.58,61.89,58.35,65.07Z"/></g></g></svg>