<svg xmlns="http://www.w3.org/2000/svg" viewBox="0 0 113 113"><defs><style>.cls-1{fill:none;}.cls-2{fill:#2eafff;}</style></defs><title>cancer</title><g id="Layer_2" data-name="Layer 2"><g id="Layer_1-2" data-name="Layer 1"><rect class="cls-1" width="113" height="113"/><path class="cls-2" d="M96.18,57a17.1,17.1,0,0,0-15.8-10.83,15.77,15.77,0,0,0-5.45,1c-8.88,3.25-13.18,11.58-10.72,20.71,1.47,5.47,5.08,9.29,10.74,11.37a37.8,37.8,0,0,1-16.9,4A39,39,0,0,1,29.65,71c-1.64-1.75-3.38-2.68-5-2.68a4.12,4.12,0,0,0-3,1.26c-2.06,2.08-1.66,4.69,1.2,7.76A45.92,45.92,0,0,0,52.35,92a59.62,59.62,0,0,0,6.32.35h0c12.9,0,23.75-4.61,32.27-13.7C97.26,71.88,99,64.6,96.18,57ZM85.9,68.56a7.67,7.67,0,1,1-5.44-13.05h.09a7.79,7.79,0,0,1,7.63,7.59A7.68,7.68,0,0,1,85.9,68.56Z"/><path class="cls-2" d="M34.56,67.93c.44,0,.89,0,1.34-.05,7.27-.53,12.48-4.57,14.67-11.36,2.33-7.21.7-13.48-4.71-18.12a31,31,0,0,0-4.49-3l-.82-.49A35.12,35.12,0,0,1,56.72,31a46,46,0,0,1,12.34,1.81A35.56,35.56,0,0,1,86.47,44.14,4.67,4.67,0,0,0,90,45.92a4.8,4.8,0,0,0,2.89-1c1.94-1.41,2.26-3.72.88-6.18a13.45,13.45,0,0,0-2.64-3.23c-9.85-9.16-20.94-13.8-33-13.8a54.08,54.08,0,0,0-16.54,2.74c-13.23,4.26-20.93,11.8-23.52,23a16.92,16.92,0,0,0,3.4,14.17A16.38,16.38,0,0,0,34.56,67.93ZM29,45.77a7.78,7.78,0,0,1,5.53-2.4h.15a7.24,7.24,0,0,1,7.53,7.55A7.75,7.75,0,0,1,40,56.49a7.48,7.48,0,0,1-5.34,2.19A7.82,7.82,0,0,1,27,51.15,7.34,7.34,0,0,1,29,45.77Z"/></g></g></svg>