<svg xmlns="http://www.w3.org/2000/svg" viewBox="0 0 113 113"><defs><style>.cls-1{fill:none;}.cls-2{fill:#b3ff00;}</style></defs><title>capricorn</title><g id="Layer_2" data-name="Layer 2"><g id="Layer_1-2" data-name="Layer 1"><rect class="cls-1" width="113" height="113"/><path class="cls-2" d="M72.05,74.4C68.31,79.51,65,84.77,61,89.31c-5.26,5.88-12.7,6.53-20.07,6.51a3.34,3.34,0,0,1-3.29-3.69,3.5,3.5,0,0,1,3.44-3.58c1.31-.1,2.62-.2,3.93-.22,7.84-.1,12.41-5,16.15-11,1.91-3.09,3.68-6.26,5.42-9.44a3.69,3.69,0,0,0,.62-2.52C64,56.37,65.94,47.09,65.4,38c0-.51,0-1,0-1.52-.4-2.75-.9-5.5-4.1-6.41S56,31.1,55,33.55a150.11,150.11,0,0,0-6.61,18.71c-1.62,6.31-2.25,12.88-3.24,19.34-.37,2.42-1.12,4.35-4,4.29s-3.42-2.19-3.64-4.36c-.9-9.13-1.63-18.29-2.58-27.42a58.53,58.53,0,0,0-1.75-9.18c-1.22-4.53-3.25-5.51-7.61-4.06a10.48,10.48,0,0,0-1.37.62c-3.5,1.74-5.37,1.54-6.41-.7s.13-4.62,3.31-6.1c10.16-4.72,17.89-.48,20,11,.51,2.76.87,5.56,1.17,7.54,2.47-4.89,5-10.49,8.07-15.8,2.76-4.78,7.56-5.51,12.49-4.57A10.83,10.83,0,0,1,72,32.23c.86,6.05.78,12.23,1,18.36.1,2.31,0,4.63,0,7.52,4.18-3.59,8.31-5.73,13.53-4.59A13.67,13.67,0,0,1,95,59c3.64,5,2.86,12.76-1.66,17.21C87.52,81.92,81.09,81.35,72.05,74.4ZM90,66.24a6.21,6.21,0,0,0-6-5.64c-2.32,0-7.74,4.13-7.84,6-.12,2.1,5.14,6.12,8,6.09A6.26,6.26,0,0,0,90,66.24Z"/></g></g></svg>