<svg xmlns="http://www.w3.org/2000/svg" viewBox="0 0 954 954"><defs><style>.cls-1{opacity:0.2;}.cls-2{fill:#e76367;}.cls-3{fill:#d000e7;}.cls-4,.cls-5{fill:none;}.cls-4{stroke:#fff;stroke-miterlimit:10;}.cls-6{fill:#fff;}</style></defs><title>inner_ring_4</title><g id="Layer_2" data-name="Layer 2"><g id="Layer_1-2" data-name="Layer 1"><g class="cls-1"><path class="cls-2" d="M477,270A207,207,0,1,0,684,477,206.88,206.88,0,0,0,477,270Zm98.22,238.92a103.8,103.8,0,1,1,5-31.92A103.44,103.44,0,0,1,575.22,508.92Z"/><line class="cls-3" x1="477" y1="684" x2="477" y2="580.25"/><line class="cls-3" x1="598.67" y1="644.46" x2="537.7" y2="560.53"/><line class="cls-3" x1="673.87" y1="540.96" x2="575.22" y2="508.92"/><line class="cls-3" x1="673.87" y1="413.04" x2="575.22" y2="445.08"/><line class="cls-3" x1="598.67" y1="309.54" x2="537.7" y2="393.47"/><line class="cls-3" x1="477" y1="373.75" x2="477" y2="270"/><line class="cls-3" x1="416.3" y1="393.47" x2="355.33" y2="309.54"/><line class="cls-3" x1="378.78" y1="445.08" x2="280.13" y2="413.04"/><line class="cls-3" x1="378.78" y1="508.92" x2="280.13" y2="540.96"/><line class="cls-3" x1="416.3" y1="560.53" x2="355.33" y2="644.46"/></g><path class="cls-4" d="M477,270A207,207,0,1,0,684,477,206.88,206.88,0,0,0,477,270Zm98.22,238.92a103.8,103.8,0,1,1,5-31.92A103.44,103.44,0,0,1,575.22,508.92Z"/><line class="cls-4" x1="477" y1="684" x2="477" y2="580.25"/><line class="cls-4" x1="598.67" y1="644.46" x2="537.7" y2="560.53"/><line class="cls-4" x1="673.87" y1="540.96" x2="575.22" y2="508.92"/><line class="cls-4" x1="673.87" y1="413.04" x2="575.22" y2="445.08"/><line class="cls-4" x1="598.67" y1="309.54" x2="537.7" y2="393.47"/><line class="cls-4" x1="477" y1="373.75" x2="477" y2="270"/><line class="cls-4" x1="416.3" y1="393.47" x2="355.33" y2="309.54"/><line class="cls-4" x1="378.78" y1="445.08" x2="280.13" y2="413.04"/><line class="cls-4" x1="378.78" y1="508.92" x2="280.13" y2="540.96"/><line class="cls-4" x1="416.3" y1="560.53" x2="355.33" y2="644.46"/><rect class="cls-5" width="954" height="954"/><path class="cls-6" d="M529.64,653.12c-2-3.47-1.61-7-.09-10.47,1.25-2.85,2.87-5.53,4.22-8.34a21,21,0,0,0,1.71-4.55,6.09,6.09,0,0,0-7.43-7.38,69.48,69.48,0,0,0-7.71,2.85,1.81,1.81,0,0,0-1.22,2c0,5.66,0,11.31,0,17V646h-4.45v-43.4h-4.41v-4.47h13.13v4.32h-4.15v18.26c1.34-.53,2.67-1.09,4-1.6a14.91,14.91,0,0,1,8.28-1,10.24,10.24,0,0,1,8,13.48,68.24,68.24,0,0,1-3.54,7.94c-1,2.18-2.12,4.31-2.95,6.54a5,5,0,0,0,1.47,6l-.58,1.12Z"/><path class="cls-6" d="M370.92,554.14h-2.48c1.57-3.79,3.09-7.44,4.74-11.4l4.7,11.31-2.57.19v1.69c0,4.27,0,8.54,0,12.81-.06,8-6.5,15.3-14.42,16.57-1.73.27-.78,1.44-1.13,2.41H368v4.37h-8.16v5.5h-4.36V592.2h-8.26v-4.4h8c.44-1.61.19-2.24-1.54-2.61a17.1,17.1,0,0,1-13.68-15.4c-.39-4.54-.22-9.13-.3-13.7,0-.61,0-1.21,0-1.91h-2.48L342,542.74c1.63,3.91,3.16,7.57,4.73,11.35l-2.46.12c0,1.82,0,3.61,0,5.39,0,3.24,0,6.48.07,9.72.13,5.42,5.47,11.09,11,11.62V554.22l-2.47-.14c1.55-3.73,3.06-7.36,4.7-11.33l4.73,11.31-2.42.16V581a12.63,12.63,0,0,0,8.19-4.86,12.82,12.82,0,0,0,2.84-8.4C370.87,563.28,370.92,558.81,370.92,554.14Z"/><path class="cls-6" d="M614.2,379.93l6.69-6.73-1.67-1.83,11.72-4.86-4.82,11.75-1.74-1.58-6.74,6.76a19.78,19.78,0,0,1,3.75,16.18,19.56,19.56,0,0,1-8,12.33A19.94,19.94,0,0,1,587,382.33C593.2,375.32,604.42,372.8,614.2,379.93Zm-12.32.35a15.39,15.39,0,1,0,15.29,15.28A15.39,15.39,0,0,0,601.88,380.28Z"/><path class="cls-6" d="M531.16,344.83H537v4.83h-5.73v5.85h-4.7v-5.73h-5.81v-4.9h5.75c0-1.85.06-3.54,0-5.21,0-.35-.62-.87-1-1A15.62,15.62,0,0,1,513.25,323c.13-3.35.56-6.16,4.8-11-3-3.6-3.94-5.4-4.35-8.16.35,0,.7,0,1-.07,2.23-.25,4.27-.15,4.94,2.6a3.25,3.25,0,0,0,.68,1c1,1.29,1.93,1.95,3.83,1.18a13.57,13.57,0,0,1,10.19.25,1.58,1.58,0,0,0,2.14-.49c1-1.44,2-2.91,3.1-4.5h4.46a15.88,15.88,0,0,1-4.48,8.18,17.08,17.08,0,0,1,4.56,8.44c1.67,7.93-3.66,16.42-11.61,18.16-1.07.24-1.49.58-1.42,1.68C531.23,341.72,531.16,343.16,531.16,344.83Zm-2.27-10.5a10.92,10.92,0,0,0,10.85-11,10.76,10.76,0,0,0-10.89-10.8A10.65,10.65,0,0,0,518,323.36,10.86,10.86,0,0,0,528.89,334.33Z"/><path class="cls-6" d="M587.68,556.31c.26-4.45,4.74-9,9.24-9.59,8.89-1.21,13.58,4.07,15.12,11.34,2.05,9.62-1.45,17.38-7.95,24.17a13.44,13.44,0,0,1-1.44,1.15l.2.37h15.91v-37h4.57v37.13h7.18v4.55h-7.09v5.34h-4.5v-5.27H588.85c2.52-1.74,4.79-3.17,6.9-4.82,4.91-3.83,9.34-8.12,11.41-14.21a18.7,18.7,0,0,0-.74-14.22c-1.45-3.14-4.16-4.32-7.56-4.2a6.74,6.74,0,0,0-6.36,4.28,1.43,1.43,0,0,1-1.62,1C589.86,556.26,588.83,556.31,587.68,556.31Z"/><path class="cls-6" d="M454.38,346.12c-7.58,6.06-21.2,6.53-30.3-2.14a24.36,24.36,0,0,1-1.91-32.77,24,24,0,0,1,32.27-4.31c-6.16-.22-11.33,1.54-15.52,5.73a19.61,19.61,0,0,0,15.46,33.49Zm-16.07-38.91a19.28,19.28,0,0,0-17.22,18.4A19.54,19.54,0,0,0,438.42,346c-6.27-5.08-9.66-11.39-9.69-19.35S432.06,312.4,438.31,307.21Z"/><path class="cls-6" d="M638.83,484.32v5.82h5.68v4.8h-5.7v5.82h-4.63V495h-5.86v-4.79H634v-5.87c-11-2.57-13.92-11.67-13.11-17.43,1.2-8.56,7.76-13.84,15.51-13.84a15.36,15.36,0,0,1,15.5,13.5C653,473.51,649,482.13,638.83,484.32Zm-2.42-4.78a10.84,10.84,0,1,0-10.85-10.83A10.66,10.66,0,0,0,636.41,479.54Z"/><path class="cls-6" d="M379.08,381.93a24.12,24.12,0,1,1-23.33-24.18A24.23,24.23,0,0,1,379.08,381.93Zm-43.76,0a19.66,19.66,0,1,0,19.57-19.75A19.57,19.57,0,0,0,335.32,381.92Z"/><path class="cls-6" d="M354.92,376.26a5.66,5.66,0,0,1,5.67,5.66,5.53,5.53,0,0,1-5.6,5.54,5.61,5.61,0,0,1-5.69-5.62A5.7,5.7,0,0,1,354.92,376.26Z"/><path class="cls-6" d="M322.62,477.71a12.95,12.95,0,1,0-12.95-12.95A13,13,0,0,0,322.62,477.71Zm0-21.38a8.44,8.44,0,1,1-8.43,8.43A8.44,8.44,0,0,1,322.62,456.33Z"/><path class="cls-6" d="M343,470.34l-4.43-.83a16.21,16.21,0,0,1-31.86,0l-4.44.83a20.71,20.71,0,0,0,18.11,16.76v4.13h-6.74v4.51h6.74v8.42h4.51v-8.42h6.74v-4.51h-6.74V487.1A20.69,20.69,0,0,0,343,470.34Z"/><path class="cls-6" d="M450.42,604.66h2.65v-4.51h-2.65a5.25,5.25,0,0,0-5.24,5.24v10.24H434.44V599.75h-4.51v15.88H419.19V605.19a5,5,0,0,0-5-5h-2.85v4.51h2.85a.52.52,0,0,1,.52.53v23.89a.63.63,0,0,1-.62.63h-2.75v4.51h2.75a5.14,5.14,0,0,0,5.13-5.14v-8.94h10.74v12.64a10.24,10.24,0,1,0,4.51,0V620.14h10.74v8.92a5.16,5.16,0,0,0,5.16,5.16h2.73v-4.51h-2.73a.65.65,0,0,1-.65-.65V605.39A.73.73,0,0,1,450.42,604.66Zm-12.51,38.1a5.72,5.72,0,1,1-5.72-5.72A5.73,5.73,0,0,1,437.91,642.76Z"/></g></g></svg>