<svg xmlns="http://www.w3.org/2000/svg" viewBox="0 0 113 113"><defs><style>.cls-1{fill:none;}.cls-2{fill:#ff8c2e;}</style></defs><title>leo</title><g id="Layer_2" data-name="Layer 2"><g id="Layer_1-2" data-name="Layer 1"><rect class="cls-1" width="113" height="113"/><path class="cls-2" d="M46.44,56.49c-1.71-3.24-3.15-5.89-4.51-8.57C39.39,43,38,37.67,38.78,32.1A17.78,17.78,0,0,1,54.9,16.5c8.54-.67,16.93,5.18,19.42,13.88,1.86,6.53.83,13.11-.95,19.45-1.86,6.6-4.43,13-6.56,19.52-1.37,4.21-2.67,8.47-3.65,12.78a12,12,0,0,0,.27,5.65c.65,2.36,1.9,4.68,4.78,4.83a6.8,6.8,0,0,0,6.65-3.94c.33-.62.4-1.61.89-1.88,1.21-.68,2.91-1.77,3.83-1.36,1.12.49,2.49,2.5,2.29,3.58-1,4.95-4.23,8.19-9,9.79-4.54,1.55-8.75,1.09-12.3-2.55a16.18,16.18,0,0,1-4.15-16c1.65-6.53,3.95-12.92,6.19-19.29,2.92-8.31,5.92-16.59,5.6-25.59-.29-8.13-8.53-14-15.68-11.29-5.68,2.19-8.4,8.1-6.47,15.19a46,46,0,0,0,4.24,9.66,41,41,0,0,1,5.35,20c0,8.33-6,14.54-13.94,14.26a13.48,13.48,0,0,1-13-14.31c.39-7.75,7.09-13.29,15.2-12.58ZM48.81,70a6.61,6.61,0,0,0-6.16-6.9A6.58,6.58,0,1,0,48.81,70Z"/></g></g></svg>