<svg xmlns="http://www.w3.org/2000/svg" viewBox="0 0 113 113"><defs><style>.cls-1{fill:none;}.cls-2{fill:#00ffa6;}</style></defs><title>libra</title><g id="Layer_2" data-name="Layer 2"><g id="Layer_1-2" data-name="Layer 1"><rect class="cls-1" width="113" height="113"/><path class="cls-2" d="M18.51,67.11c9.09,0,18.19,0,27.28,0,2.87,0,4.21-1.43,3.68-4.2a7.14,7.14,0,0,0-2.18-3.37A14.93,14.93,0,0,1,46,39.25c4.24-5.43,13.3-6.88,19.16-3.06A14.46,14.46,0,0,1,70,55.79c-1,1.78-2.87,3.07-4,4.82-.71,1.14-1.41,3-1,4A4.91,4.91,0,0,0,68.7,67c9.09.2,18.19.12,27.29.1,2.43,0,4.38-1.71,4.13-3.77-.28-2.37-1.64-3.84-4.22-3.83H77.44c3.84-14.09,1.63-22.83-7.1-29.14-8-5.8-17.72-6.13-26.15.14-9.91,7.37-11.43,17.39-6.9,29H33.13c-4.85,0-9.7,0-14.55,0-2.48,0-4,1.39-4,3.95S16.06,67.11,18.51,67.11Z"/><path class="cls-2" d="M95.17,73.27H19.61c-3.33,0-5,1.29-5,3.86s1.54,3.74,5,3.74H95.18c3,0,4.94-1.38,5-3.59S98.15,73.27,95.17,73.27Z"/></g></g></svg>