<svg xmlns="http://www.w3.org/2000/svg" viewBox="0 0 60 60"><defs><style>.cls-1{fill:none;}.cls-2{fill:#00ffa6;}</style></defs><title>mercury</title><g id="Layer_2" data-name="Layer 2"><g id="Layer_1-2" data-name="Layer 1"><rect class="cls-1" width="60" height="60"/><path class="cls-2" d="M33.16,44.83H39v4.83H33.23v5.85h-4.7V49.78H22.72v-4.9h5.75c0-1.85.06-3.54,0-5.21,0-.35-.62-.87-1-1A15.62,15.62,0,0,1,15.25,23c.13-3.35.56-6.16,4.8-11-3-3.6-3.94-5.4-4.35-8.16.35,0,.7,0,1.05-.07C19,3.52,21,3.62,21.69,6.37a3.25,3.25,0,0,0,.68,1c1,1.29,1.93,2,3.83,1.18a13.57,13.57,0,0,1,10.19.25,1.58,1.58,0,0,0,2.14-.49c1-1.44,2-2.91,3.1-4.5h4.46A15.88,15.88,0,0,1,41.61,12a17.08,17.08,0,0,1,4.56,8.44c1.67,7.93-3.66,16.42-11.61,18.16-1.07.24-1.49.58-1.42,1.68C33.23,41.72,33.16,43.16,33.16,44.83Zm-2.27-10.5a10.92,10.92,0,0,0,10.85-11,10.76,10.76,0,0,0-10.89-10.8A10.65,10.65,0,0,0,20,23.36,10.86,10.86,0,0,0,30.89,34.33Z"/></g></g></svg>