<svg xmlns="http://www.w3.org/2000/svg" viewBox="0 0 60 60"><defs><style>.cls-1{fill:none;}.cls-2{fill:#2eafff;}</style></defs><title>neptune</title><g id="Layer_2" data-name="Layer 2"><g id="Layer_1-2" data-name="Layer 1"><rect class="cls-1" width="60" height="60"/><path class="cls-2" d="M43.92,14.14H41.44C43,10.35,44.53,6.7,46.18,2.74l4.7,11.31-2.57.19v1.69c0,4.27,0,8.54,0,12.81-.06,8-6.5,15.3-14.42,16.57-1.73.27-.78,1.44-1.13,2.41H41v4.37H32.88v5.5H28.52V52.2H20.26V47.8h8c.44-1.61.19-2.24-1.54-2.61a17.1,17.1,0,0,1-13.68-15.4c-.39-4.54-.22-9.13-.3-13.7,0-.61,0-1.21,0-1.91H10.29L15,2.74c1.63,3.91,3.16,7.57,4.73,11.35l-2.46.12c0,1.82,0,3.61,0,5.39,0,3.24,0,6.48.07,9.72.13,5.42,5.47,11.09,11,11.62V14.22l-2.47-.14C27.45,10.35,29,6.72,30.6,2.75l4.73,11.31-2.42.16V41a12.63,12.63,0,0,0,8.19-4.86,12.82,12.82,0,0,0,2.84-8.4C43.87,23.28,43.92,18.81,43.92,14.14Z"/></g></g></svg>