<svg xmlns="http://www.w3.org/2000/svg" viewBox="0 0 954 954"><defs><style>.cls-1,.cls-2{fill:none;}.cls-2{stroke:#fff;stroke-miterlimit:10;}.cls-3{opacity:0.08;}.cls-4{fill:#fff;}</style></defs><title>outer_ring_4</title><g id="Layer_2" data-name="Layer 2"><g id="Layer_1-2" data-name="Layer 1"><rect class="cls-1" width="954" height="954"/><path class="cls-2" d="M476.87,64.12C248.46,64.12,63.62,249,63.62,477.38S248.46,890.62,476.87,890.62,890.13,705.79,890.13,477.38,705.29,64.12,476.87,64.12Zm311,592.79a358.85,358.85,0,0,1-311,179.47h0a359,359,0,1,1,0-718h0a359.09,359.09,0,0,1,311,538.53Z"/><line class="cls-2" x1="476.87" y1="890.62" x2="476.87" y2="836.38"/><line class="cls-2" x1="683.5" y1="835.26" x2="656.41" y2="788.33"/><line class="cls-2" x1="834.76" y1="684" x2="787.83" y2="656.91"/><line class="cls-2" x1="890.13" y1="477.38" x2="835.88" y2="477.38"/><line class="cls-2" x1="834.76" y1="270.75" x2="787.83" y2="297.84"/><line class="cls-2" x1="683.5" y1="119.49" x2="656.4" y2="166.42"/><line class="cls-2" x1="476.87" y1="118.38" x2="476.87" y2="64.12"/><line class="cls-2" x1="297.35" y1="166.43" x2="270.25" y2="119.49"/><line class="cls-2" x1="165.92" y1="297.85" x2="118.99" y2="270.75"/><line class="cls-2" x1="117.88" y1="477.38" x2="63.62" y2="477.38"/><line class="cls-2" x1="165.92" y1="656.9" x2="118.99" y2="684"/><line class="cls-2" x1="297.34" y1="788.33" x2="270.25" y2="835.26"/><g class="cls-3"><path class="cls-4" d="M476.87,64.12C248.46,64.12,63.62,249,63.62,477.38S248.46,890.62,476.87,890.62,890.13,705.79,890.13,477.38,705.29,64.12,476.87,64.12Zm311,592.79a358.85,358.85,0,0,1-311,179.47h0a359,359,0,1,1,0-718h0a359.09,359.09,0,0,1,311,538.53Z"/><line class="cls-4" x1="476.87" y1="890.62" x2="476.87" y2="836.38"/><line class="cls-4" x1="683.5" y1="835.26" x2="656.41" y2="788.33"/><line class="cls-4" x1="834.76" y1="684" x2="787.83" y2="656.91"/><line class="cls-4" x1="890.13" y1="477.38" x2="835.88" y2="477.38"/><line class="cls-4" x1="834.76" y1="270.75" x2="787.83" y2="297.84"/><line class="cls-4" x1="683.5" y1="119.49" x2="656.4" y2="166.42"/><line class="cls-4" x1="476.87" y1="118.38" x2="476.87" y2="64.12"/><line class="cls-4" x1="297.35" y1="166.43" x2="270.25" y2="119.49"/><line class="cls-4" x1="165.92" y1="297.85" x2="118.99" y2="270.75"/><line class="cls-4" x1="117.88" y1="477.38" x2="63.62" y2="477.38"/><line class="cls-4" x1="165.92" y1="656.9" x2="118.99" y2="684"/><line class="cls-4" x1="297.34" y1="788.33" x2="270.25" y2="835.26"/></g><path class="cls-4" d="M100.21,370.69h4.33v28h-4.33Z"/><path class="cls-4" d="M197.62,190.69H202v28h-4.33Z"/><path class="cls-4" d="M206.69,190.69H211v28h-4.33Z"/><path class="cls-4" d="M368.1,90.69h4.33v28H368.1Z"/><path class="cls-4" d="M377.17,90.69h4.33v28h-4.33Z"/><path class="cls-4" d="M386.24,90.69h4.33v28h-4.33Z"/><path class="cls-4" d="M580.37,90.69l-4.74,28h-5.8l-4.74-28h4.42l3.26,22,3.27-22Z"/><path class="cls-4" d="M583.72,90.69h4.33v28h-4.33Z"/><path class="cls-4" d="M762.86,196.69l-4.74,28h-5.81l-4.74-28H752l3.27,22,3.26-22Z"/><path class="cls-4" d="M855.27,371.69l-4.74,28h-5.8l-4.74-28h4.41l3.27,22,3.27-22Z"/><path class="cls-4" d="M858.62,371.69H863v28h-4.33Z"/><path class="cls-4" d="M851.75,560.69l-4.74,28h-5.8l-4.74-28h4.41l3.27,22,3.27-22Z"/><path class="cls-4" d="M855.1,560.69h4.33v28H855.1Z"/><path class="cls-4" d="M864.17,560.69h4.33v28h-4.33Z"/><path class="cls-4" d="M750.1,730.75l-4.74,28h-5.8l-4.74-28h4.41l3.27,22,3.27-22Z"/><path class="cls-4" d="M753.45,730.75h4.33v28h-4.33Z"/><path class="cls-4" d="M762.52,730.75h4.33v28h-4.33Z"/><path class="cls-4" d="M771.59,730.75h4.33v28h-4.33Z"/><path class="cls-4" d="M568.83,833.75h4.33v28h-4.33Z"/><path class="cls-4" d="M588.07,861.79,584.4,852l-3.48,9.77h-4.49l5.68-14.5-5.31-13.54h4.65l3.4,9,3.18-9h4.5l-5.4,13.74,5.6,14.3Z"/><path class="cls-4" d="M383.34,863.79,379.67,854l-3.48,9.77H371.7l5.68-14.5-5.31-13.54h4.65l3.4,9,3.18-9h4.5l-5.4,13.74,5.6,14.3Z"/><path class="cls-4" d="M206.61,766.79,202.94,757l-3.48,9.77H195l5.68-14.5-5.31-13.54H200l3.4,9,3.18-9h4.5l-5.4,13.74,5.6,14.3Z"/><path class="cls-4" d="M214.54,738.75h4.33v28h-4.33Z"/><path class="cls-4" d="M99,591.79,95.28,582l-3.48,9.77H87.31L93,577.29l-5.31-13.54h4.65l3.4,9,3.18-9h4.5L98,577.49l5.6,14.3Z"/><path class="cls-4" d="M106.88,563.75h4.33v28h-4.33Z"/><path class="cls-4" d="M116,563.75h4.33v28H116Z"/></g></g></svg>