<svg xmlns="http://www.w3.org/2000/svg" viewBox="0 0 113 113"><defs><style>.cls-1{fill:none;}.cls-2{fill:#2eafff;}</style></defs><title>pisces</title><g id="Layer_2" data-name="Layer 2"><g id="Layer_1-2" data-name="Layer 1"><rect class="cls-1" width="113" height="113"/><path class="cls-2" d="M64.27,52.93c.93-10.07,3.74-19,9.85-26.72.82-1,1.7-2,2.6-3,1.6-1.71,3.5-2.26,5.32-.56s1.33,3.61-.3,5.3A37.31,37.31,0,0,0,72,47.2c-.35,1.75-.54,3.53-.86,5.73h7.88c2.28,0,4.12.79,4.18,3.36.07,2.76-1.8,3.58-4.23,3.58H71.32c.89,9.59,3.89,17.72,10,24.68A5.81,5.81,0,0,1,82.72,89c-.66,2.68-3.79,2.88-6,.53a43.77,43.77,0,0,1-11-21.25c-.6-2.65-1-5.36-1.51-8.36-3.75,0-7.58-.12-11.38.12-.6,0-1.46,1.63-1.59,2.59-1.16,8.78-4,16.88-9.5,23.93a42.44,42.44,0,0,1-2.81,3.19c-1.53,1.6-3.37,2.1-5.07.48s-1.46-3.63.2-5.34c5.08-5.24,8-11.61,9.55-18.64.44-1.95.65-3.95,1-6.37-2.87,0-5.36,0-7.85,0s-4.33-1-4.24-3.61c.07-2.45,1.91-3.36,4.23-3.33s4.83,0,7.84,0c-.31-2.22-.47-4.17-.88-6.08a37.9,37.9,0,0,0-9.26-18.46c-2.08-2.22-2.36-4.47-.66-5.8,2.28-1.78,4.1-.67,5.77,1.15A44.67,44.67,0,0,1,51.06,49.91c.24,2.24.81,3.23,3.25,3.07C57.52,52.77,60.75,52.93,64.27,52.93Z"/></g></g></svg>