<svg xmlns="http://www.w3.org/2000/svg" viewBox="0 0 60 60"><defs><style>.cls-1{fill:none;}.cls-2{fill:#2eafff;}</style></defs><title>pluto_1</title><g id="Layer_2" data-name="Layer 2"><g id="Layer_1-2" data-name="Layer 1"><rect class="cls-1" width="60" height="60"/><path class="cls-2" d="M30.62,29.71A12.95,12.95,0,1,0,17.67,16.76,13,13,0,0,0,30.62,29.71Zm0-21.38a8.44,8.44,0,1,1-8.43,8.43A8.44,8.44,0,0,1,30.62,8.33Z"/><path class="cls-2" d="M51,22.34l-4.43-.83a16.21,16.21,0,0,1-31.86,0l-4.44.83A20.71,20.71,0,0,0,28.36,39.1v4.13H21.62v4.51h6.74v8.42h4.51V47.74h6.74V43.23H32.87V39.1A20.69,20.69,0,0,0,51,22.34Z"/></g></g></svg>