<svg xmlns="http://www.w3.org/2000/svg" viewBox="0 0 113 113"><defs><style>.cls-1{fill:none;}.cls-2{fill:#ff8c2e;}</style></defs><title>sagittarius</title><g id="Layer_2" data-name="Layer 2"><g id="Layer_1-2" data-name="Layer 1"><rect class="cls-1" width="113" height="113"/><path class="cls-2" d="M45.53,67.66l-9.43-9c-1.77-1.69-2.43-3.72-.61-5.58s3.83-1,5.5.74c3,3.09,6,6.15,9.13,9.29L75.73,37.7a26,26,0,0,0-2.66-.3c-4.75,0-9.5,0-14.25,0-2.34,0-3.94-1-4-3.52s1.65-3.32,4-3.3c8.29.05,16.58.1,24.87,0,2.93,0,4.16,1.46,4.19,4,.11,8.39.07,16.78,0,25.17,0,2.16-1.15,3.79-3.48,3.79-2.5,0-3.49-1.71-3.49-4,0-5.45,0-10.91,0-16.32L55.58,68.56c2.73,2.69,5.75,5.66,8.78,8.61,1.62,1.59,3,3.24,1.06,5.46-1.61,1.86-3.66,1.67-6-.62-3-3-6-6-9.43-9.53C45.83,76.82,41.88,81,37.92,85.07c-2.09,2.17-4.26,4.28-6.32,6.47-1.72,1.82-3.61,2.48-5.48.52-1.72-1.8-1.09-3.72.51-5.33,5.61-5.64,11.25-11.25,16.86-16.87C44.05,69.3,44.57,68.7,45.53,67.66Z"/></g></g></svg>