<svg xmlns="http://www.w3.org/2000/svg" viewBox="0 0 60 60"><defs><style>.cls-1{fill:none;}.cls-2{fill:#b3ff00;}</style></defs><title>satune</title><g id="Layer_2" data-name="Layer 2"><g id="Layer_1-2" data-name="Layer 1"><rect class="cls-1" width="60" height="60"/><path class="cls-2" d="M36.64,58.12c-2-3.47-1.61-7-.09-10.47,1.25-2.85,2.87-5.53,4.22-8.34a21,21,0,0,0,1.71-4.55,6.09,6.09,0,0,0-7.43-7.38,69.48,69.48,0,0,0-7.71,2.85,1.81,1.81,0,0,0-1.22,2c.05,5.66,0,11.31,0,17V51H21.69V7.55H17.28V3.08H30.41V7.4H26.26V25.66c1.34-.53,2.67-1.09,4-1.6a14.91,14.91,0,0,1,8.28-1,10.24,10.24,0,0,1,8,13.48A68.24,68.24,0,0,1,43,44.48c-1,2.18-2.12,4.31-3,6.54a5,5,0,0,0,1.47,6L41,58.12Z"/></g></g></svg>