<svg xmlns="http://www.w3.org/2000/svg" viewBox="0 0 113 113"><defs><style>.cls-1{fill:none;}.cls-2{fill:#2eafff;}</style></defs><title>scorpio</title><g id="Layer_2" data-name="Layer 2"><g id="Layer_1-2" data-name="Layer 1"><rect class="cls-1" width="113" height="113"/><path class="cls-2" d="M58.63,37.44C60,35,61.09,32.83,62.31,30.76c3.36-5.71,8.14-8,13.54-6.71A13.14,13.14,0,0,1,86.08,36.74c.22,8.28-.18,16.58.14,24.86a93.55,93.55,0,0,0,2,15.53,9.54,9.54,0,0,0,6.14,7.35,9.2,9.2,0,0,0,1.94.18c-.82-1.14-1.87-2-2-2.94-.18-1.45-.22-3.64.63-4.31,1-.82,3.66-1.13,4.55-.4a82.09,82.09,0,0,1,9.39,9.35c1.32,1.53,1,3.61-.56,5.22-2.54,2.58-5.12,5.13-7.56,7.81-1.69,1.87-3.6,2.31-5.57.93s-1.88-3.72,0-6.13c.36-.45.69-.93,1.08-1.47C84.52,91,80.35,82.25,79.76,73.85,79,62.18,79,50.46,78.59,38.76c0-1.28-.1-2.85-.82-3.75-1.16-1.46-2.8-3.29-4.39-3.45C72,31.42,70,33.09,69.05,34.5c-3.92,6-5.58,12.9-6.94,19.82-1.4,7.1-2.42,14.29-3.56,21.45-.36,2.25-1.73,3-3.83,3s-3.47-1.19-3.51-3.34C51.08,67.6,51.12,59.81,51,52c-.11-5.42-.33-10.85-.69-16.26A4.25,4.25,0,0,0,46,31.52a6.39,6.39,0,0,0-4.65,3C39,39.27,36.72,44.2,35.55,49.33c-1.95,8.52-3,17.23-4.5,25.85-.36,2.07-1.43,3.5-3.81,3.56s-3.58-1.06-3.78-3.36c-.62-7.14-1.08-14.3-1.87-21.42-.66-5.9-1.47-11.81-2.68-17.62-1-4.65-3.49-5.59-7.88-3.61-.82.38-1.64,1.27-2.39,1.2-1.56-.13-3.88-.32-4.41-1.29-.66-1.21-.47-4,.47-4.78,3.39-2.84,7.51-4.43,12.05-3.47,5.84,1.23,9.35,5.72,10.36,12.69.39,2.66.84,5.3,1.16,7.31,2.15-4.6,4.28-9.79,7-14.68a11.29,11.29,0,0,1,12.29-5.77,12.38,12.38,0,0,1,10.13,9.61C57.94,34.72,58.24,35.89,58.63,37.44Z"/></g></g></svg>