<svg xmlns="http://www.w3.org/2000/svg" viewBox="0 0 60 60"><defs><style>.cls-1{fill:none;}.cls-2{fill:#ff8c2e;}</style></defs><title>sun</title><g id="Layer_2" data-name="Layer 2"><g id="Layer_1-2" data-name="Layer 1"><rect class="cls-1" width="60" height="60"/><path class="cls-2" d="M55.08,29.93A24.12,24.12,0,1,1,31.75,5.75,24.23,24.23,0,0,1,55.08,29.93Zm-43.76,0A19.66,19.66,0,1,0,30.89,10.17,19.57,19.57,0,0,0,11.32,29.92Z"/><path class="cls-2" d="M30.92,24.26a5.66,5.66,0,0,1,5.67,5.66A5.53,5.53,0,0,1,31,35.46a5.61,5.61,0,0,1-5.69-5.62A5.7,5.7,0,0,1,30.92,24.26Z"/></g></g></svg>