<svg xmlns="http://www.w3.org/2000/svg" viewBox="0 0 113 113"><defs><style>.cls-1{fill:none;}.cls-2{fill:#b3ff00;}</style></defs><title>taurus</title><g id="Layer_2" data-name="Layer 2"><g id="Layer_1-2" data-name="Layer 1"><rect class="cls-1" width="113" height="113"/><path class="cls-2" d="M70.38,46.11C85.8,57.53,83.4,75,74.85,83.76a24,24,0,0,1-35.39-.87,22.65,22.65,0,0,1-5.85-19.6A25.1,25.1,0,0,1,44.22,46.65c-2.95-4.48-5.75-8.76-8.59-13-1.37-2.06-2.79-3.94-5.71-4a3.17,3.17,0,0,1-3.33-3.72c.2-2.17,1.57-3.2,3.9-3.12,4.84.18,8,3,10.5,6.65,2.06,3,3.85,6.25,6,9.16a8.18,8.18,0,0,0,4,2.91c10.39,2.85,15.89.69,20.68-7.85a48.22,48.22,0,0,1,3.51-5.77,11.77,11.77,0,0,1,9.6-5.1c2.23,0,3.49,1.06,3.75,3a3.11,3.11,0,0,1-3,3.76c-3.62.11-5.22,2.4-6.8,5.08s-3.4,5.42-5.24,8A35.42,35.42,0,0,1,70.38,46.11ZM40.27,67A17.26,17.26,0,1,0,57.59,49.51,17.32,17.32,0,0,0,40.27,67Z"/></g></g></svg>