<svg xmlns="http://www.w3.org/2000/svg" viewBox="0 0 60 60"><defs><style>.cls-1{fill:none;}.cls-2{fill:#00ffa6;}</style></defs><title>uranus_1</title><g id="Layer_2" data-name="Layer 2"><g id="Layer_1-2" data-name="Layer 1"><rect class="cls-1" width="60" height="60"/><path class="cls-2" d="M48.42,8.66h2.65V4.15H48.42a5.25,5.25,0,0,0-5.24,5.24V19.63H32.44V3.75H27.93V19.63H17.19V9.19a5,5,0,0,0-5-5H9.31V8.66h2.85a.52.52,0,0,1,.52.53V33.08a.63.63,0,0,1-.62.63H9.31v4.51h2.75a5.14,5.14,0,0,0,5.13-5.14V24.14H27.93V36.78a10.24,10.24,0,1,0,4.51,0V24.14H43.18v8.92a5.16,5.16,0,0,0,5.16,5.16h2.73V33.71H48.34a.65.65,0,0,1-.65-.65V9.39A.73.73,0,0,1,48.42,8.66ZM35.91,46.76A5.72,5.72,0,1,1,30.19,41,5.73,5.73,0,0,1,35.91,46.76Z"/></g></g></svg>