<svg xmlns="http://www.w3.org/2000/svg" viewBox="0 0 113 113"><defs><style>.cls-1{fill:none;}.cls-2{fill:#b3ff00;}</style></defs><title>virgo</title><g id="Layer_2" data-name="Layer 2"><g id="Layer_1-2" data-name="Layer 1"><rect class="cls-1" width="113" height="113"/><path class="cls-2" d="M34.11,43.42c2.18-4.58,4.4-9.39,6.75-14.13,2.57-5.16,7.54-5.68,12.25-5.17s7.57,4.2,8.93,8.79c.34,1.14.64,2.28,1.1,3.92,3.33-7.48,6.8-15.06,16.54-12.68C89.25,26.5,89.1,35,89.56,42.9a25.52,25.52,0,0,1,3-1c4.72-.93,8.29,1.49,9.31,6.3,1.27,6-.09,11.68-2,17.22-1.62,4.63-3.79,9.07-5.88,14,2,2.6,5.18,4.38,8.74,5.57,3,1,4.06,2.48,3.3,4.78-.87,2.64-3,3.07-5.12,2.1A96.15,96.15,0,0,1,90.4,86.13c-1.18-.74-1.83-1.2-3.08-.19a23.17,23.17,0,0,1-16,5.26c-2.65-.1-4.37-1-4.76-3.54-.3-1.91,2.25-3.74,5-3.71,4.4,0,8.42-1,11.7-4a3.39,3.39,0,0,0,1-2.78C81,67,81.92,56.56,82.06,46.17a59,59,0,0,0-.76-11.12,6.35,6.35,0,0,0-3.23-3.84,3.55,3.55,0,0,0-4.81,2c-1.91,4.18-4.13,8.35-5.18,12.78-2,8.49-3.36,17.16-4.92,25.76-.42,2.37-1,4.51-4,4.18-2.68-.29-3.34-2.28-3.34-4.58,0-8.79,0-17.58-.07-26.37,0-3,.14-6.14-.54-9a7.86,7.86,0,0,0-3.53-4.72c-2.38-1.22-4.43.68-5.24,2.81a159.34,159.34,0,0,0-6.27,18.47C38.49,59.22,37.93,66.21,36.53,73c-.24,1.18-2.18,2.53-3.54,2.81-1.92.41-3.05-1-3.26-3.08-1.05-10.44-2.09-20.88-3.26-31.31a34.18,34.18,0,0,0-1.68-7.33c-.88-2.55-2.77-3.65-5.5-2.42-1.11.5-2.26.9-3.3,1.5-2.12,1.21-3.79.47-5-1.26s-.55-3.63,1.11-4.74c8.94-6,17.92-3.65,20.51,7.55C33.32,37.72,33.67,40.79,34.11,43.42Zm56.2,26.22c2.5-6.6,5.84-13,4.34-20.73C89.64,52.22,88.59,57.24,90.31,69.64Z"/></g></g></svg>